<?xml version="1.0" encoding="utf-8"?>
<!-- Generator: Adobe Illustrator 16.0.0, SVG Export Plug-In . SVG Version: 6.00 Build 0)  -->
<!DOCTYPE svg PUBLIC "-//W3C//DTD SVG 1.0//EN" "http://www.w3.org/TR/2001/REC-SVG-20010904/DTD/svg10.dtd">
<svg version="1.0" id="Layer_1" xmlns="http://www.w3.org/2000/svg" xmlns:xlink="http://www.w3.org/1999/xlink" x="0px" y="0px"
	 width="1732px" height="490px" viewBox="0 0 1732 490" enable-background="new 0 0 1732 490" xml:space="preserve">
<g>
	<g>
		<path fill="#FFFFFF" d="M207.32,2.2c1.24-2.92,4.98-1.69,7.03-0.44c52.3,30.08,104.49,60.35,156.78,90.46c0.04,9-0.1,18-0.13,27
			c17.46,0.01,34.93,0,52.39,0.01c0.03,62.48,0.08,124.97-0.04,187.45c-7.86,4.49-15.74,8.95-23.57,13.49
			c7.53,13.13,15.2,26.19,22.74,39.31c1.57,2.41,1.07,5.37,1.02,8.08c-53.16,30.43-106.11,61.24-159.26,91.68
			c-7.71-4.68-15.57-9.1-23.33-13.7c-8.47,14.63-17.06,29.2-25.34,43.95c-2.04,0.01-4.17,0.04-5.95-1.12
			c-52.34-30.14-104.61-60.42-156.96-90.55c0.03-9.02,0-18.05,0.02-27.07c-17.58-0.01-35.15,0.14-52.72-0.08V183.8
			c7.63-4.9,15.69-9.11,23.53-13.65c-7.32-12.57-14.55-25.2-21.88-37.76c-1.28-2.07-1.61-4.49-1.65-6.87v-0.17
			c0.11-0.98,0.22-1.95,0.35-2.93c2.16-1.15,4.31-2.3,6.42-3.54c50.8-29.22,101.5-58.61,152.25-87.91
			c7.88,4.65,15.68,9.44,23.58,14.03C190.77,30.69,199.09,16.47,207.32,2.2z M215.37,21.36c-6.25,10.62-12.4,21.29-18.51,31.99
			c43.05,25.02,86.06,50.1,129.1,75.13c0.1,16.72-0.01,33.45,0.06,50.18c9.44,5.22,18.69,10.78,28.07,16.12
			c0.2-30.54,0.4-61.09,0.44-91.64c-0.07-0.4-0.21-1.19-0.29-1.58C308.09,74.61,261.62,48.16,215.37,21.36z M19.63,130.53
			c6.02,10.47,12.15,20.88,18.13,31.37c43.57-24.63,86.8-49.86,130.43-74.39c14.67,8.28,29.17,16.88,43.81,25.24
			c9.14-4.99,18.04-10.42,27.08-15.59c-26.58-15.95-53.54-31.29-80.25-47.03C112.46,76.98,66.1,103.86,19.63,130.53z M113.96,137.32
			c-0.31,10.71-0.31,21.45,0.01,32.16c27.06-15.96,54.37-31.48,81.59-47.15c-9.33-5.03-18.31-10.69-27.57-15.85
			C149.93,116.67,132.06,127.2,113.96,137.32z M228.42,122.36c27.1,15.43,54.05,31.15,81.09,46.71
			c-0.07-10.32-0.02-20.64-0.03-30.95c-17.91-10.55-35.91-20.96-53.83-31.49C246.67,112.05,237.51,117.14,228.42,122.36z
			 M116.26,187.14c-1.5,0.73-2.98,1.91-2.5,3.8c0.15,36.91-0.23,73.82,0.19,110.72c32.7,18.8,65.33,37.74,98.04,56.53
			c32.44-18.95,65.08-37.56,97.53-56.51c-0.06-37.79-0.07-75.57,0-113.36c-32.52-18.85-65.07-37.66-97.66-56.41
			C179.94,150.23,148.24,168.92,116.26,187.14z M371.02,135.78c-0.37,49.97-0.57,99.93-0.7,149.9
			c-14.76,8.59-29.57,17.08-44.31,25.7c0.01,10.6-0.07,21.21,0.04,31.82c26.97-15.42,54.07-30.67,80.89-46.34
			c0.43-53.67,0.01-107.38,0.22-161.07C395.11,135.76,383.06,135.78,371.02,135.78z M18.14,192.23c-1.16,0.53-1.66,1.44-1.49,2.74
			c-0.05,53.06,0.09,106.11-0.07,159.17c12.1,0.2,24.2,0.01,36.3,0.1c0.05-49.98,0.54-99.96,0.56-149.93
			c14.62-8.54,29.32-16.91,43.97-25.38c-0.28-10.68,0.08-21.36-0.21-32.03C70.94,162.16,44.49,177.11,18.14,192.23z M325.99,197.87
			c0.02,31.43,0.01,62.85,0.01,94.28c7.87-4.51,15.72-9.03,23.58-13.55c1.73-1.15,4.72-1.86,4.22-4.53c0.1-20,0.19-39.99,0.22-59.99
			C344.72,208.6,335.4,203.16,325.99,197.87z M70.01,213.84c-0.01,20.73-0.37,41.46-0.23,62.19c9.18,5.25,18.3,10.59,27.46,15.87
			c0.11-31.27,0.12-62.54,0-93.8C88.18,203.37,79.11,208.64,70.01,213.84z M69.57,295.3c-0.02,29.91-0.26,59.81-0.36,89.72
			c0.22,1.22-0.6,3.21,0.86,3.88c46.03,26.62,92.17,53.05,138.18,79.71c6.45-10.27,12.17-20.98,18.42-31.37
			c-43.06-25.08-86.06-50.27-129.16-75.28c-0.33-16.73-0.34-33.5,0.01-50.24C88.64,305.58,78.93,300.68,69.57,295.3z M113.82,320.73
			c-0.07,10.1-0.07,20.21-0.02,30.31c-0.28,1.49,1.4,2.08,2.37,2.75c17.35,9.86,34.45,20.16,51.83,29.96
			c8.92-5.61,18.21-10.59,27.23-16.04C168.16,351.94,141.03,336.25,113.82,320.73z M228.34,367.78c9.2,5.21,18.28,10.62,27.45,15.87
			c17.89-10.37,35.86-20.58,53.73-30.98c-0.08-10.57-0.05-21.14-0.01-31.71C282.36,336.4,255.4,352.18,228.34,367.78z M255.83,402.5
			c-14.65-8.35-29.27-16.76-43.83-25.26c-9.29,5.4-18.61,10.76-27.92,16.14c26.86,15.5,53.54,31.3,80.47,46.69
			c46.35-26.81,92.85-53.39,139.12-80.33c-6.29-10.35-11.97-21.08-18.41-31.34C342.19,353.23,298.89,377.65,255.83,402.5z"/>
	</g>
	<path fill="#FFFFFF" d="M512.41,48.54c14.28-5.12,29.71-4.57,44.61-3.64c14.98,1.34,30.18,3.63,44,9.86
		c-0.8,18.43-3.94,36.68-7.7,54.71c-2.72,0.05-5.43,0.06-8.14,0.1c-4.45-14.56-8.39-29.28-12.88-43.83
		c-10.58-4.07-22.08-4.92-33.31-4.94c-10.23-0.03-21.12,3.26-27.89,11.31c-4.43,4.53-6.51,10.78-7.25,16.96
		c-1.02,7.17-0.08,14.64,2.86,21.27c3.16,6.21,8.37,11.03,13.66,15.41c17.13,13.53,38.29,20.4,56.22,32.67
		c10.88,6.82,20.37,16.24,26.44,27.62c6.61,13.18,6.81,28.89,3.19,42.95c-3.71,14.53-13.77,27.07-26.83,34.32
		c-17.86,10.22-39.16,12.12-59.34,10.78c-16.35-1.48-33.03-5.34-46.93-14.42c1.35-19.37,3.87-38.7,7.96-57.68
		c2.78,0,5.57,0.01,8.36,0.06c4.04,15.61,8.71,31.05,12.85,46.64c5.07,4.33,11.13,8,17.91,8.59c8.94,1.27,18.08,0.5,26.86-1.46
		c12-3.11,23.29-10.75,28.6-22.23c5.58-12.44,4.42-28.78-5.68-38.62c-13.5-14.07-32.27-20.74-48.99-29.97
		c-7.4-3.63-14.13-8.42-20.84-13.16c-11-9.07-21.18-20.54-24.33-34.83c-3.29-14.88-2.28-31.35,5.65-44.67
		C488.17,60.73,499.92,52.83,512.41,48.54z"/>
	<g>
		<path fill="#FFFFFF" d="M1596.58,44.8c21.74-1.83,44.71,1.65,63.41,13.4c15.43,9.18,27.47,23.45,35.21,39.54
			c9.58,19.58,13.25,41.6,13.07,63.27c-0.35,24.23-5.49,49.05-18.55,69.75c-9.49,15.94-24.19,28.52-41.19,35.85
			c-22.06,9.28-47.22,9.87-70.28,4.16c-19.01-5.34-36.44-16.84-48.05-32.91c-12.33-16.5-19.24-36.53-22.021-56.8
			c-3.08-24.33-1.37-49.58,7.13-72.7c7.03-19.23,19.41-37.02,36.77-48.23C1565.06,50.86,1580.89,46.51,1596.58,44.8z M1593.54,61.83
			c-15.48,2.27-29.1,12.53-36.9,25.89c-11.49,18.98-14.75,41.56-15.77,63.36c-0.65,22.67,1.66,46.03,11.07,66.91
			c7.47,16.78,21.14,31.53,38.92,37.29c16.94,4.58,36.77,3.91,51.02-7.4c15.94-11.92,24.16-31.15,28.47-50.03
			c5.07-24.48,5.42-50.07,0.27-74.57c-3.86-18.23-11.97-36.37-26.35-48.7C1630.63,62.5,1611.17,58.8,1593.54,61.83z"/>
	</g>
	<path fill="#FFFFFF" d="M1393.06,48c27.16,0.02,54.31-0.03,81.47,0.02c-0.06,3.06,0.18,6.14-0.16,9.19
		c-8.01,3.64-16.58,6.11-25.17,7.94c-0.19,62.84-0.03,125.69-0.08,188.54c8.61,1.9,17.14,4.2,25.28,7.65
		c0.12,3.15,0.14,6.31,0.18,9.47c-27.15-0.03-54.3-0.11-81.44,0.04c-0.01-3.03-0.03-6.05-0.14-9.08c7.8-4.48,16.7-6.47,25.49-7.93
		c-0.01-62.88-0.04-125.76,0.02-188.63c-8.71-1.9-17.26-4.63-25.46-8.1C1393.12,54.07,1393.12,51.03,1393.06,48z"/>
	<path fill="#FFFFFF" d="M1231.02,71.13c3.12-1.82,6.83-0.98,10.27-1.12c0.01,13.9-0.02,27.79,0.01,41.69
		c15.93,0.03,31.85-0.01,47.77,0.02c0.01,5.26,0.05,10.53-0.03,15.8c-15.86-0.02-31.72,0.05-47.57-0.04
		c-0.42,29.51-0.05,59.03-0.189,88.54c0.29,9.21,0.04,18.91,4.21,27.38c2.95,6.26,9.47,10.52,16.34,11.05
		c10.99,0.97,22.1-0.55,32.7-3.5c0.71,1.62,1.439,3.23,2.18,4.86c-5.84,5.8-13.05,9.99-20.56,13.23
		c-9.15,3.85-19.12,6.11-29.07,5.22c-10.49-0.54-21.04-5.43-27.16-14.14c-6.45-10.08-7.14-22.47-7.2-34.1
		c-0.01-32.86-0.04-65.72,0.021-98.58c-8.48,0.15-16.97,0.09-25.45,0.04c-0.07-2.74-0.09-5.48-0.11-8.22
		c7.88-4.89,16.55-8.39,25.53-10.7c0.2-9.12-0.4-18.29,0.28-27.36C1218.32,76.79,1224.82,74.11,1231.02,71.13z"/>
	<path fill="#FFFFFF" d="M634.99,119.22c12.49-5.23,25.61-8.87,38.97-11.01c3.46-0.66,7-0.54,10.51-0.49
		c0.33,12.07,0,24.14,0.16,36.21c3.73-9.24,8.97-18.08,16.65-24.59c8.54-8.51,20.91-11.59,32.65-11.57
		c10.64,0.46,21.87,2.88,29.91,10.34c7.63,7.64,11.02,18.34,12.77,28.74c4.36-12.68,12.17-24.35,23.43-31.89
		c14.35-8.4,32.34-9.06,47.94-3.93c10.68,3.68,17.62,13.87,20.48,24.41c3.93,13.11,4.31,26.91,4.55,40.49
		c-0.01,26.4-0.02,52.79,0,79.18c7.42,1.2,14.57,3.83,21.02,7.69c-0.04,2.66-0.04,5.32-0.04,7.98c-22.8-0.01-45.59,0.01-68.38-0.01
		c-0.01-2.64-0.03-5.28-0.11-7.91c6.09-3.15,12.33-5.95,18.91-7.91c-0.25-29.31,0.22-58.62-0.25-87.93
		c-0.73-11.06-1.43-23.27-8.99-32.1c-6.88-7.81-18.45-8.3-27.98-6.49c-8.77,1.63-15.83,7.98-20.23,15.49
		c-3.88,6.82-7.02,14.27-8.18,22.05c-0.01,29.67,0,59.33,0,89c7.08,2.21,14.04,4.81,20.8,7.87c-0.02,2.66-0.07,5.32-0.25,7.98
		c-22.64-0.09-45.28-0.03-67.92-0.03c0.06-2.7,0.08-5.39,0.05-8.08c5.79-3.55,12.23-5.92,18.75-7.73c0.01-24.98,0.03-49.95,0-74.93
		c-0.47-12.73-0.24-25.98-5.21-37.95c-2.06-5.46-6.42-9.87-11.62-12.39c-8.15-3.08-17.67-2.95-25.45,1.12
		c-11.13,5.29-18.25,16.33-22.32,27.59c-1.5,3.68-0.96,7.68-1,11.54c-0.03,27.1,0.04,54.2-0.03,81.29c0,1.37,0.18,2.74,0.39,4.1
		c6.19,1.75,12.28,4.05,17.9,7.2c1.12,2.46,0.33,5.53,0.46,8.24c-22.77-0.02-45.55-0.01-68.32-0.01c-0.01-2.68-0.02-5.36-0.04-8.03
		c6.64-3.46,13.86-5.6,21.02-7.7c0.02-41.67,0-83.35,0.01-125.02c-6.95-0.84-13.89-1.83-20.86-2.41
		C634.99,124.82,634.96,122.02,634.99,119.22z"/>
	<g>
		<path fill="#FFFFFF" d="M922.93,123.2c13.73-7.3,28.52-13.06,44.1-14.6c9.94-0.91,20.08-1.44,29.96,0.36
			c12.43,1.82,24.45,9.46,29.8,21.08c4.85,10.55,4.84,22.51,4.84,33.9c-0.02,29.34-2.84,58.69-0.59,88.01
			c7.3,1.1,14.63,2.02,21.95,3.06c0,2.26,0,4.52,0.01,6.78c-10.77,5.21-22.17,9.17-33.92,11.46c-3.38,0.72-6.85,0.54-10.27,0.52
			c-4.46-10.7-4.01-22.45-4.79-33.78c-0.2-0.55-0.62-1.66-0.82-2.22c-2.04,3.75-2.6,8.09-4.71,11.82
			c-5.96,11.94-17.69,20.33-30.44,23.65c-10.04,1.95-20.75,1.78-30.34-2.02c-12.44-4.77-22.14-16.1-24.59-29.24
			c-1.8-10.08-1.17-20.77,2.78-30.28c4.76-10.18,14.37-17.42,24.91-20.85c10.24-4.18,21.3-5.42,32.18-6.89
			c9.91-1.18,19.88-1.76,29.84-2.48c0.7-12.71,1.92-25.7-1.15-38.21c-1.85-7.31-5.81-14.6-12.6-18.36
			c-6.61-4.12-14.74-3.12-22.12-2.69c-4.29,0.17-8.44,1.4-12.4,2.98c-4.66,12.74-9.9,25.27-14.7,37.96
			c-2.83,0.18-5.66,0.18-8.48-0.01C927.39,150.12,923.9,136.85,922.93,123.2z M972.92,195.53c-8.21,1.18-16.69,3.77-22.82,9.62
			c-7.19,6.78-8.06,17.61-7.07,26.89c0.91,9.49,7.18,18.76,16.64,21.37c6.79,1.73,14.37,2.19,20.93-0.66
			c10.56-5.02,19.04-14.64,22.45-25.82c0.2-11.05-0.06-22.11,0.11-33.17C993.07,194.12,982.92,194.02,972.92,195.53z"/>
	</g>
	<path fill="#FFFFFF" d="M1107.67,108.44c3.97-0.88,8.05-0.78,12.1-0.76c0.23,10.81-0.15,21.64,0.2,32.45
		c0.21,0.49,0.62,1.47,0.83,1.96c5.36-11.03,13.69-20.69,24.15-27.15c8.35-5.03,18.11-8.49,27.979-7.21
		c2.79,5.32,4.65,11.04,6.55,16.72c1.27,3.54,0.72,7.35,0.8,11.02c-14.14,0.11-28.29,0.04-42.44,0.03
		c-8.96,6.21-15.59,15.83-17.98,26.44c0.03,31.06-0.16,62.12,0.1,93.18c8.81,0.85,17.48,3.41,25.32,7.54c0,2.71,0.01,5.42,0.04,8.13
		c-25.02-0.06-50.04,0.05-75.07-0.05c-0.06-2.68-0.05-5.35,0.07-8.02c6.59-3.48,13.63-6.03,20.9-7.7
		c0.021-41.65-0.01-83.3,0.01-124.95c-6.94-0.95-13.9-1.75-20.86-2.49c-0.16-2.78-0.19-5.58-0.17-8.37
		C1082.22,114.19,1094.82,110.63,1107.67,108.44z"/>
	<path fill="#FFFFFF" d="M1554.42,285.37c14.9-1.91,30.04-0.38,44.68,2.8c19.74,4.85,39.18,10.8,58.92,15.67
		c23.49,5.92,48.82,6.78,71.97-1.09c0.51,1.51,1.03,3.03,1.58,4.54c-7.69,6.83-15.82,13.18-24.6,18.54
		c-6.87,4.39-14.67,7.61-22.84,8.35c-8.72,1.31-17.5-0.3-26.04-1.98c-23.67-6.37-45.91-16.87-68.71-25.71
		c-14.41-6.03-29.32-10.78-44.4-14.8C1548.16,289.65,1551.1,287.22,1554.42,285.37z"/>
	<g>
		<path fill="#FFFFFF" d="M672.18,377.33c6.02-0.94,12.64,0.03,17.5,3.94c7.8,5.51,10.34,15.74,10.13,24.81
			c-0.36,8.19-2.81,17.01-9.49,22.31c-9.15,7.95-24.76,5.94-31.57-4.14c-5.85-8.78-6.59-20.17-3.95-30.19
			C656.86,385.83,663.64,378.72,672.18,377.33z M671.61,383.77c-9.74,3.88-12.02,15.87-10.91,25.19c0.5,5.67,2.66,11.46,7.08,15.24
			c5.2,4.51,13.77,3.98,18.55-0.92c5.45-5.54,6.59-13.84,6.11-21.28c-0.47-6.21-2.56-13.02-8.03-16.61
			C680.78,382.69,675.81,382.6,671.61,383.77z"/>
	</g>
	<g>
		<path fill="#FFFFFF" d="M880.25,377.32c7.83-1.41,16.47,1.62,21.27,8.08c4.69,6.09,6.15,14.04,5.77,21.58
			c-0.39,7.58-2.74,15.6-8.58,20.79c-6.52,6.06-16.88,7.15-24.72,3.09c-6.021-2.87-9.89-8.88-11.63-15.15
			c-2.16-8.42-2.08-17.73,1.53-25.74C866.81,383.37,873.01,378.26,880.25,377.32z M879.52,383.76c-5.03,1.34-8.26,5.97-9.92,10.64
			c-2.08,6.6-2.09,13.81-0.22,20.47c1.4,4.56,4.3,8.94,8.72,11.04c6.3,3.19,14.79,0.56,18.19-5.64c4.14-6.58,4.29-14.76,3.24-22.22
			c-1.04-4.68-3.03-9.59-7.15-12.38C888.73,382.99,883.8,382.43,879.52,383.76z"/>
	</g>
	<path fill="#FFFFFF" d="M1037.83,388.84c4.6-8.95,15.61-13.62,25.29-11.23c3.85,0.97,6.99,3.52,9.95,6.05
		c-1.39,1.5-2.77,3-4.23,4.43c-5.56-7.31-17.78-6.23-23.02,0.88c-4.8,6.28-5.3,14.76-4.19,22.32c1.04,7.12,5.79,14.44,13.34,15.69
		c5.84,1.37,11.5-1.63,15.45-5.74c1.3,1.44,2.59,2.89,3.88,4.36c-4.84,5.24-12.06,8.64-19.28,7.5c-8.14-0.65-15.41-6.33-18.37-13.88
		C1032.87,409.54,1032.93,398.12,1037.83,388.84z"/>
	<g>
		<path fill="#FFFFFF" d="M1443.61,380.65c7.48-5,18.04-4.87,25.38,0.37c6.91,4.96,10.189,13.7,10.31,21.99
			c0.34,7.77-1.21,15.97-6.1,22.21c-3.26,4.11-8,6.88-13.17,7.72c3.72,6.8,12.25,8.16,19.21,6.51c0.42,1.78,0.83,3.57,1.229,5.38
			c-5.02,1.11-10.36,1.5-15.3-0.14c-5.59-1.84-9.97-6.34-12.49-11.55c-5.62-1.06-10.99-3.84-14.229-8.67
			c-5.38-7.65-6.25-17.54-4.99-26.57C1434.61,391.24,1437.76,384.42,1443.61,380.65z M1451.48,383.77
			c-6.39,1.85-9.88,8.52-10.88,14.68c-1.27,8.13-0.64,17.34,4.65,24.03c4.7,6.21,14.89,6.73,20.39,1.3
			c5.5-5.27,6.65-13.39,6.5-20.65c-0.48-5.76-1.78-12.03-6.15-16.16C1462.23,383.3,1456.43,382.17,1451.48,383.77z"/>
	</g>
	<path fill="#FFFFFF" d="M1518.95,377.56c7.39-1.87,15.25,0.96,20.64,6.14c-1.28,1.42-2.52,2.86-3.76,4.3
		c-4.93-4.26-12.25-6.63-18.39-3.66c-4.53,2.05-5.71,8.93-1.62,12.01c6.28,4.86,14.73,5.82,20.87,10.91
		c6.48,5.64,5.79,17.18-1.24,22.1c-9.58,6.8-23.9,4.39-31.61-4.17c1.28-1.55,2.59-3.09,3.93-4.61c3.26,2.74,6.85,5.36,11.13,6.21
		c4.23,0.89,9.17,0.65,12.6-2.3c4.05-3.19,3.48-10.39-0.99-12.94c-5.3-3.3-11.39-5.02-16.81-8.08c-4.74-2.55-7.91-8.02-7.22-13.43
		C1507.09,383.62,1512.71,378.48,1518.95,377.56z"/>
	<path fill="#FFFFFF" d="M1551.32,391.51c3.18-7.97,10.95-13.84,19.55-14.47c6.34-0.76,12.58,2.12,16.81,6.76
		c-1.29,1.4-2.57,2.81-3.85,4.21c-2.49-2.2-5.25-4.41-8.66-4.8c-7.42-1.29-14.98,3.55-17.38,10.58c-2.35,6.93-2.55,14.72-0.31,21.71
		c1.95,7.09,9.1,12.57,16.56,11.72c4.47-0.07,7.94-3.17,11.2-5.85c1.28,1.38,2.55,2.79,3.81,4.23c-3.35,3.3-7.26,6.4-12.02,7.21
		c-9.25,2.08-19.58-2.36-24.18-10.7C1547.81,412.84,1547.39,401.25,1551.32,391.51z"/>
	<g>
		<path fill="#FFFFFF" d="M1611.4,377.61c7.42-1.86,15.75,0.32,21.11,5.84c5.86,5.85,7.72,14.55,7.5,22.58
			c-0.24,7.55-2.28,15.64-7.94,20.99c-8.14,8.67-23.58,8.25-31.36-0.71c-7.31-8.45-8.46-20.75-5.93-31.28
			C1596.53,386.74,1602.94,379.38,1611.4,377.61z M1614.24,383.33c-3.21,0.54-6.36,2.01-8.35,4.66c-4.43,5.22-5.4,12.43-5.12,19.05
			c0.3,6.7,2.52,13.97,8.34,17.9c5.78,4.14,14.58,2.51,18.76-3.15c4.56-5.84,5.3-13.67,4.72-20.81c-0.56-5.43-2.4-11.18-6.77-14.73
			C1622.67,383.54,1618.27,382.55,1614.24,383.33z"/>
	</g>
	<path fill="#FFFFFF" d="M472.71,378c10.43-0.01,20.86,0,31.29,0c-0.01,1.92-0.01,3.85-0.01,5.78c-8.07,0-16.13-0.02-24.2,0.01
		c-0.03,6.14-0.03,12.28,0,18.42c6.8,0.03,13.61,0,20.41,0.02c0.05,1.92,0.08,3.84,0.12,5.76c-6.85,0.02-13.7,0-20.54,0.02
		c-0.01,8.06,0,16.13-0.01,24.19c-2.34,0.07-4.69,0.09-7.03,0.09C472.67,414.19,472.73,396.1,472.71,378z"/>
	<path fill="#FFFFFF" d="M513.47,378.01c2.35-0.01,4.7-0.01,7.06,0c-0.04,18.09,0.03,36.18-0.04,54.27c-2.32,0-4.64,0.01-6.95,0.02
		C513.39,414.21,513.53,396.11,513.47,378.01z"/>
	<path fill="#FFFFFF" d="M535.47,378.01c2.34-0.01,4.68-0.01,7.03,0.01c8.7,15,17.39,30.02,25.66,45.27
		c-1.03-15.07-0.6-30.18-0.69-45.27c2.17-0.02,4.35-0.02,6.53-0.02c0,18.09,0,36.19,0,54.29c-2.37,0-4.73,0-7.08,0
		c-8.68-15.22-17.79-30.21-25.88-45.77c1.28,15.23,0.92,30.51,0.96,45.77c-2.17,0-4.34-0.01-6.5-0.01
		C535.45,414.19,535.5,396.1,535.47,378.01z"/>
	<g>
		<path fill="#FFFFFF" d="M589,378c9.71,0.34,20.39-1.61,29.03,4.01c8.48,5.51,10.83,16.59,9.94,26.07
			c-0.3,8.56-4.4,17.56-12.37,21.48c-8.29,4.02-17.72,2.42-26.6,2.73C588.99,414.19,589,396.1,589,378z M595.79,383.8
			c-0.06,14.3,0.05,28.61-0.06,42.91c5.03-0.05,10.3,0.17,15.05-1.75c6.19-2.7,9.48-9.41,9.96-15.87c0.74-7.51-0.11-16.39-6.23-21.6
			C609.32,383.09,602.12,383.74,595.79,383.8z"/>
	</g>
	<path fill="#FFFFFF" d="M711.22,378.01c2.25-0.01,4.51-0.01,6.78-0.01c0.01,10.32-0.01,20.64,0,30.95
		c0.18,4.48,0.26,9.35,2.79,13.24c4.4,7.07,16.85,6.72,20.45-0.93c1.71-3.13,2.25-6.75,2.26-10.28
		c-0.04-10.99-0.01-21.98-0.03-32.97c2.271-0.01,4.54-0.01,6.82-0.01c-0.01,9.66,0.02,19.32-0.01,28.98
		c-0.24,6.72-0.38,14.02-4.55,19.67c-3.72,5.19-10.53,6.96-16.62,6.53c-4.64-0.41-9.78-1.62-12.75-5.51
		c-3.87-4.59-5.09-10.73-5.14-16.59C711.22,400.06,711.23,389.03,711.22,378.01z"/>
	<path fill="#FFFFFF" d="M759.68,378.01c13.29,0,26.58-0.04,39.88,0.02c-0.04,1.89-0.07,3.79-0.1,5.69
		c-5.49,0.11-10.97,0.03-16.46,0.06c-0.01,16.17,0.01,32.34,0,48.51c-2.34,0-4.67,0-6.99,0c-0.02-16.17,0-32.34-0.02-48.51
		c-5.4-0.01-10.8,0-16.19-0.01C759.74,381.85,759.7,379.92,759.68,378.01z"/>
	<path fill="#FFFFFF" d="M818.44,378.03c2.39-0.04,4.8-0.03,7.21,0.03c4.39,9,8.09,18.34,12.6,27.3
		c4.31-9.07,8.18-18.35,12.51-27.41c2.33,0.04,4.67,0.05,7.02,0.08c-3.73,7.26-6.97,14.76-10.75,21.99
		c-1.78,3.92-4.27,7.58-5.43,11.75c-0.24,6.83,0.03,13.68-0.11,20.52c-2.34-0.01-4.67-0.01-6.99-0.01
		c-0.07-6.44,0.01-12.88-0.01-19.32c0.14-2.33-1.271-4.29-2.14-6.33C827.96,396.98,822.79,387.7,818.44,378.03z"/>
	<path fill="#FFFFFF" d="M918.71,378c2.26,0,4.54,0,6.82,0.01c0.01,10.32-0.05,20.65,0.02,30.97c0.06,5.03,0.52,10.51,3.79,14.6
		c4.49,4.82,12.84,4.75,17.66,0.45c3.15-3.54,3.96-8.5,4.01-13.08C950.99,399.97,951,388.98,951,378c2.25,0,4.51,0,6.78,0.01
		c-0.04,11.32,0.06,22.65-0.05,33.98c-0.31,7.46-2.94,16-10.2,19.42c-7.69,3.25-18.05,2.55-23.8-4.05c-3.8-4.52-4.74-10.69-5-16.4
		C918.68,399.97,918.72,388.99,918.71,378z"/>
	<g>
		<path fill="#FFFFFF" d="M972.22,378.01c9.51,0.53,19.57-1.55,28.64,2.15c7.4,3.18,9,12.83,6.23,19.68
			c-1.7,4.64-6.22,7.64-10.89,8.69c4.43,7.95,9.09,15.79,13.67,23.67c-2.57,0.07-5.13,0.1-7.69,0.12
			c-4.37-7.65-8.81-15.25-13.04-22.97c-3.28-0.09-6.56-0.08-9.84-0.04c-0.05,7.66,0.03,15.31-0.04,22.97
			c-2.35,0.01-4.7-0.01-7.03-0.07C972.21,414.14,972.23,396.07,972.22,378.01z M979.3,403.69c5.65-0.27,11.66,0.98,16.98-1.49
			c5.72-2.5,6.77-10.86,3.07-15.45c-5.57-4.68-13.44-2.75-20.09-3.3C979.33,390.2,979.26,396.94,979.3,403.69z"/>
	</g>
	<path fill="#FFFFFF" d="M1084.22,378.01c10.521-0.02,21.05-0.02,31.57,0c-0.03,1.9-0.04,3.82-0.05,5.73
		c-8.16,0.06-16.311,0.05-24.46,0c-0.021,5.69,0.09,11.38-0.08,17.06c6.86-0.14,13.72-0.16,20.59,0c-0.03,1.98-0.04,3.96-0.05,5.94
		c-6.82,0.06-13.64,0.05-20.46,0c0,6.61,0.04,13.21-0.021,19.82c8.42-0.17,16.85-0.04,25.29-0.09c-0.04,1.94-0.06,3.88-0.09,5.83
		c-10.75-0.08-21.49,0.11-32.23-0.1C1084.21,414.14,1084.23,396.07,1084.22,378.01z"/>
	<g>
		<path fill="#FFFFFF" d="M1128,378c6.68,0.07,13.36-0.16,20.04,0.11c5,0.37,10.58,1.89,13.5,6.31c3.04,4.46,3.12,10.49,1.23,15.41
			c-1.8,4.63-6.27,7.61-10.94,8.78c4.46,7.95,9.18,15.74,13.7,23.65c-2.48,0.02-4.96,0.17-7.42-0.07c-1.2-0.65-1.5-2.12-2.19-3.17
			c-3.63-6.63-7.56-13.09-11.15-19.74c-3.35,0.01-6.7,0.01-10.03,0.02c0.08,7.63,0.01,15.26,0.04,22.89
			c-2.271,0.07-4.53,0.1-6.78,0.12C1127.99,414.21,1128,396.11,1128,378z M1134.73,383.51c0.08,6.73,0.06,13.46,0.01,20.19
			c5.6-0.16,11.46,0.7,16.84-1.32c6.28-2.46,7.41-12.24,2.47-16.49C1148.21,382.56,1141.15,383.8,1134.73,383.51z"/>
	</g>
	<path fill="#FFFFFF" d="M1169.21,378.01c13.26-0.02,26.52-0.01,39.79-0.01c-0.02,1.92-0.02,3.85-0.01,5.78
		c-5.5-0.02-11,0.04-16.49-0.05c0.02,16.18,0.06,32.37-0.01,48.56c-2.271,0-4.51-0.01-6.75-0.02c-0.1-16.18,0.04-32.37-0.07-48.55
		c-5.47,0.09-10.94,0.07-16.41,0.02C1169.23,381.83,1169.21,379.92,1169.21,378.01z"/>
	<path fill="#FFFFFF" d="M1218.71,378.01c2.25-0.01,4.51-0.02,6.78-0.02c0.05,18.1,0.05,36.2,0,54.3
		c-2.271-0.01-4.521-0.01-6.75-0.03C1218.67,414.18,1218.72,396.09,1218.71,378.01z"/>
	<path fill="#FFFFFF" d="M1240.47,378.02c10.44-0.04,20.88-0.02,31.32-0.01c-0.03,1.9-0.04,3.82-0.05,5.73
		c-8.16,0.06-16.311,0.05-24.46,0c0.03,6.18-0.04,12.36,0.05,18.54c6.88-0.12,13.77-0.03,20.66-0.06c-0.01,1.92-0.01,3.85,0.01,5.78
		c-6.91,0.01-13.81-0.01-20.71,0.01c-0.01,8.08,0.03,16.17-0.03,24.25c-2.26,0.02-4.51,0.02-6.75,0.03
		C1240.43,414.2,1240.51,396.11,1240.47,378.02z"/>
	<path fill="#FFFFFF" d="M1281.47,378.01c2.26-0.01,4.53-0.01,6.82-0.01c-0.01,18.09,0.03,36.18-0.03,54.26
		c-2.26,0.02-4.52,0.02-6.75,0.03C1281.44,414.2,1281.5,396.1,1281.47,378.01z"/>
	<path fill="#FFFFFF" d="M1303,378c10.52,0,21.03-0.01,31.56,0c-0.06,1.92-0.1,3.85-0.14,5.77c-8.14,0.01-16.28,0-24.41,0.01
		c-0.02,5.64-0.02,11.29,0,16.93c6.84,0,13.68-0.02,20.53,0.02c-0.04,2.01-0.06,4.02-0.11,6.04c-6.81,0.02-13.62,0-20.42,0.01
		c-0.02,6.56-0.02,13.13-0.01,19.7c8.43,0.02,16.86-0.05,25.29,0.03c-0.02,1.91-0.03,3.83-0.02,5.75
		c-10.76,0.07-21.51,0.02-32.27,0.03C1302.99,414.19,1303,396.1,1303,378z"/>
	<g>
		<path fill="#FFFFFF" d="M1346.71,378.01c9.79,0.34,20.6-1.65,29.28,4.08c7.86,5.07,10.18,15.17,9.9,23.96
			c0.03,8.69-3.33,18.14-11.16,22.72c-8.43,5.08-18.66,3.16-27.99,3.49C1346.67,414.18,1346.72,396.09,1346.71,378.01z
			 M1353.5,383.73c0,14.34,0.11,28.69-0.06,43.03c6.28-0.16,13.37,0.38,18.56-3.89c5.69-4.79,7.16-12.77,6.71-19.86
			c-0.07-6.75-2.82-14.46-9.39-17.38C1364.44,383.1,1358.78,383.92,1353.5,383.73z"/>
	</g>
	<path fill="#FFFFFF" d="M1414.22,378.01c2.34-0.01,4.7-0.01,7.07-0.01c-0.01,18.09,0.03,36.19-0.02,54.28
		c-2.37,0.01-4.71-0.01-7.04-0.08C1414.22,414.14,1414.23,396.07,1414.22,378.01z"/>
	<g>
		<path fill="#FFFFFF" d="M1651.71,378c6.12,0.04,12.23-0.09,18.36,0.05c4.74,0.14,9.83,1.1,13.47,4.38
			c4.95,4.93,5.29,13.16,2.12,19.13c-2.23,3.67-6.18,5.83-10.14,7.14c4.56,7.89,9.15,15.76,13.78,23.62
			c-2.67-0.01-5.31-0.04-7.95-0.13c-4.22-7.66-8.66-15.2-12.84-22.88c-3.36-0.02-6.72-0.02-10.07-0.05
			c0.14,7.67,0.09,15.36,0.04,23.04c-2.27-0.01-4.51-0.02-6.74-0.04C1651.68,414.18,1651.72,396.09,1651.71,378z M1658.53,383.53
			c-0.06,6.74,0.07,13.47-0.09,20.21c5.37-0.28,10.97,0.69,16.17-1.12c6.51-1.91,7.97-11.38,3.85-16.14
			C1672.73,382.31,1665.15,383.84,1658.53,383.53z"/>
	</g>
	<path fill="#FFFFFF" d="M1699.71,378c10.43,0,20.86,0,31.29,0c-0.02,1.92-0.02,3.85-0.01,5.78c-8.16-0.03-16.33,0.06-24.49-0.05
		c0.01,5.67,0.08,11.34-0.06,17.01c6.96-0.07,13.92-0.01,20.88-0.03c-0.05,2.01-0.08,4.04-0.12,6.06
		c-6.91-0.01-13.81,0.06-20.7-0.04c0.04,6.57,0,13.15,0.02,19.74c8.41,0.06,16.82-0.09,25.24,0.08c-0.02,1.88-0.01,3.77,0.01,5.66
		c-10.68,0.16-21.36,0.07-32.03,0.05C1699.68,414.17,1699.72,396.09,1699.71,378z"/>
</g>
</svg>
